# xmcd
#
# Track frame offsets:
# 150
# 18124
# 34216
# 47427
# 66035
# 81597
# 99455
# 115517
# 133119
# 151661
# 169622
# 188082
# 206577
# 220812
# 237713
# 251850
#
# Disc length: 3587 seconds
#
# Revision: 0
# Processed by: cddbd v1.4b42PL1 Copyright (c) Steve Scherf et al.
# Submitted via: Audion 2.5.0 (http://www.panic.com/audion/)
#
DISCID=d60e0110
DTITLE=RECOPILATION VERANIEGA - BEACHPLUGGING 2001
DYEAR=1900
DGENRE=
TTITLE0=N
TTITLE1=N
TTITLE2=N
TTITLE3=N
TTITLE4=N
TTITLE5=N
TTITLE6=N
TTITLE7=N
TTITLE8=N
TTITLE9=N
TTITLE10=N
TTITLE11=N
TTITLE12=N
TTITLE13=N
TTITLE14=N
TTITLE15=N
EXTD=
EXTT0=
EXTT1=
EXTT2=
EXTT3=
EXTT4=
EXTT5=
EXTT6=
EXTT7=
EXTT8=
EXTT9=
EXTT10=
EXTT11=
EXTT12=
EXTT13=
EXTT14=
EXTT15=
PLAYORDER=
